<?xml version="1.0" encoding="UTF-8"?>
<svg id="Camada_1" xmlns="http://www.w3.org/2000/svg" version="1.1" viewBox="0 0 677.8 490.1">
  <!-- Generator: Adobe Illustrator 30.7.0, SVG Export Plug-In . SVG Version: 2.1.4 Build 114)  -->
  <defs>
    <style>
      .st0 {
        fill: #77df40;
      }

      .st1 {
        fill: #0064f9;
      }
    </style>
  </defs>
  <path class="st1" d="M565.7,113.2c-18.1,0-36-.2-54.1-.2,0,10.7,0,20.9-.1,32.7-11.8-15.8-25.5-26.5-42.6-32-53.7-17.3-103.5-3.6-136.8,44.7-29.7,43-31.6,90.1-6.4,135.8,28.9,52.5,74.6,70.8,126.7,60.8,21.8-4.2,41.9-12.3,57.9-29.1,2.5,24.9-8.6,54.6-32.5,68-32.1,18-78.9,13.1-106-11.6-3.2-2.9-6-6.3-8.5-9-12.8,12.5-25.2,24.8-38,37.3.9,1.2,1.8,2.7,3,3.9,5.8,6,12.1,11.7,18.9,16.7,15.6,11.5,34.4,18.3,53,22.7,7.2,1.7,14.6,3,22,3.7,12,1.2,24.1,1.2,36.1-.5,32.5-4.5,66.1-21.8,83.9-50.1,16.3-25.9,22.1-54.8,22.5-84.8.7-67.8.8-135.7,1.1-203.5,0-1.9.2-3.7,0-5.4ZM435.8,309.1c-43.9-.3-75.8-32.8-75.7-77.3.1-44.6,32.7-77.3,76.8-77.1,44,.2,76,33.3,75.7,78.1-.4,44.3-32.8,76.6-76.7,76.3Z"/>
  <path class="st1" d="M229.8,142.6c-12.2-13.6-25.6-24.2-42-30.1-47.6-17-102.5-5.6-137.7,44.1-37.8,53.5-28,130.5,22.5,172.6,37.4,31.1,79.6,34.2,123.6,16.8,11.7-4.6,22-12.8,33.3-19.6,0,7.6,0,15.9-.1,24.5,18.1,0,35.1.2,52.8.2.3-80.3.7-159.8,1-239.4-17.7,0-34.9-.2-53.3-.2,0,10.6,0,20.8-.1,31.1ZM154.3,307.9c-44.3-.2-76.4-32.8-76.2-77.6.2-44.6,32.9-77.1,77.2-76.7,43.8.4,75.7,33.2,75.5,77.8-.3,44.5-32.5,76.8-76.5,76.6Z"/>
  <path class="st0" d="M623.4,18.1c-19.2,0-34.9,15.4-35,34.4,0,19.2,15.3,34.6,34.7,34.7,18.9,0,34.4-15.1,34.7-34,.3-19-15.4-35-34.3-35.1Z"/>
  <path class="st1" d="M596,112.5c0,3,0,5.3,0,7.7l-1,223.9c0,1.3-.3,2.7,0,3.9v4.4s25.9.1,25.9.1c9.1,0,18.2,0,27.7.1,0-1.6,0-3,0-4.4l1-235.9-53.6-.2v.4Z"/>
</svg>